#!OML:ASF I:\Random Stuff\random\construction\7_22_03\Session 2\subj1.ASF
:FULLY-SPECIFIED
:DEGREES
449
root -9.14532 17.6347 -5.69145 -360.788 80.3424 -374.808
lowerback 12.2333 2.10422 -3.53193
upperback 2.56124 2.31948 -2.82351
thorax -4.18489 1.22311 -1.32876
lowerneck -10.1261 5.17346 3.91019
upperneck 29.971 9.48111 -6.00512
head 11.9813 4.27528 -1.58761
rclavicle 2.5842e-014 -3.26007e-014
rhumerus -32.0401 37.9642 -96.7795
rradius 59.8931
rwrist -10.6339
rhand -44.1146 35.3604
rfingers 7.12502
rthumb -16.9315 6.07844
lclavicle 2.5842e-014 -3.26007e-014
lhumerus -2.8747 -36.0681 82.1534
lradius 35.6639
lwrist -11.5004
lhand -26.1511 61.3962
lfingers 7.12502
lthumb 0.399783 628.624
rfemur -18.3949 8.56704 12.4329
rtibia 14.3
rfoot -8.49965 -8.23242
rtoes -24.6901
lfemur -24.8282 -4.5303 -11.1617
ltibia 26.6521
lfoot -16.1015 10.1437
ltoes -29.9544
450
root -9.14098 17.6366 -5.68884 -360.685 80.4827 -374.72
lowerback 12.1838 1.95144 -3.60139
upperback 2.59418 2.11484 -2.81222
thorax -4.12485 1.12297 -1.24266
lowerneck -10.0727 5.31535 3.79994
upperneck 29.9753 9.67629 -5.88858
head 11.9719 4.36361 -1.49999
rclavicle -1.66979e-014 -2.3059e-014
rhumerus -32.6362 38.4335 -97.2082
rradius 61.2772
rwrist -10.8346
rhand -45.2542 36.7758
rfingers 7.12502
rthumb -18.0282 7.59135
lclavicle -1.66979e-014 -2.3059e-014
lhumerus -2.89582 -35.4433 82.1186
lradius 35.7441
lwrist -11.9931
lhand -25.893 61.5621
lfingers 7.12502
lthumb 0.649066 628.459
rfemur -18.3446 8.54781 12.3945
rtibia 14.2763
rfoot -8.45764 -8.3075
rtoes -24.3642
lfemur -24.8596 -4.62605 -11.1859
ltibia 26.6506
lfoot -16.0951 10.0836
ltoes -29.9718
451
root -9.13565 17.639 -5.68526 -360.801 80.6049 -374.804
lowerback 12.2093 1.86664 -3.58177
upperback 2.60805 2.0048 -2.83051
thorax -4.12229 1.06889 -1.2561
lowerneck -10.0646 5.36319 3.68365
upperneck 30.0996 9.74631 -5.74013
head 12.009 4.39866 -1.41527
rclavicle -1.47101e-014 3.18055e-015
rhumerus -33.1322 38.4681 -97.5823
rradius 62.5397
rwrist -10.8265
rhand -46.3045 38.0951
rfingers 7.12502
rthumb -19.0386 9.00686
lclavicle -1.47101e-014 3.18055e-015
lhumerus -2.91757 -35.3356 82.0501
lradius 35.7837
lwrist -11.9996
lhand -25.8485 61.5548
lfingers 7.12502
lthumb 0.692021 628.467
rfemur -18.2356 8.60301 12.3956
rtibia 14.2359
rfoot -8.40733 -8.4566
rtoes -24.2965
lfemur -24.8323 -4.76003 -11.1702
ltibia 26.6627
lfoot -16.1092 10.0865
ltoes -29.8613
452
root -9.1299 17.6398 -5.68149 -361.076 80.6636 -375.042
lowerback 12.2614 1.85945 -3.51465
upperback 2.60886 2.00041 -2.85595
thorax -4.14696 1.06642 -1.32165
lowerneck -10.0671 5.35009 3.67759
upperneck 30.226 9.75037 -5.73179
head 12.0597 4.40094 -1.40987
rclavicle 2.14687e-014 -5.08889e-014
rhumerus -33.5066 37.9993 -97.8581
rradius 63.7289
rwrist -10.6643
rhand -47.0426 39.1946
rfingers 7.12502
rthumb -19.7482 10.1777
lclavicle 2.14687e-014 -5.08889e-014
lhumerus -2.95658 -35.4862 82.0008
lradius 35.8278
lwrist -11.9848
lhand -25.8786 61.543
lfingers 7.12502
lthumb 0.662999 628.478
rfemur -18.1266 8.61242 12.4501
rtibia 14.1863
rfoot -8.38921 -8.50954
rtoes -24.3481
lfemur -24.7747 -4.85586 -11.1211
ltibia 26.6825
lfoot -16.1598 10.1251
ltoes -29.8357
453
root -9.12737 17.639 -5.67884 -361.491 80.6305 -375.465
lowerback 12.283 1.85991 -3.51132
upperback 2.61211 2.00177 -2.80366
thorax -4.15719 1.06683 -1.2697
lowerneck -10.0785 5.37441 3.61336
upperneck 30.2587 9.82099 -5.77513
head 12.0791 4.41993 -1.40456
rclavicle 1.82882e-014 -7.95139e-015
rhumerus -33.744 37.6983 -98.0647
rradius 64.7673
rwrist -10.5607
rhand -47.6737 40.1308
rfingers 7.12502
rthumb -20.3549 11.1776
lclavicle 1.82882e-014 -7.95139e-015
lhumerus -2.99882 -35.4163 82.022
lradius 35.8459
lwrist -12.0541
lhand -25.9247 61.5783
lfingers 7.12502
lthumb 0.618509 628.443
rfemur -18.1031 8.56564 12.5545
rtibia 14.1387
rfoot -8.40485 -8.4322
rtoes -24.3036
lfemur -24.7593 -4.86993 -11.0245
ltibia 26.7011
lfoot -16.1983 10.1836
ltoes -29.8903
454
root -9.12569 17.638 -5.6756 -361.858 80.6442 -375.818
lowerback 12.3255 1.8266 -3.56401
upperback 2.63856 1.95326 -2.71662
thorax -4.15727 1.04336 -1.14222
lowerneck -10.0986 5.41077 3.5015
upperneck 30.2091 9.91115 -5.84135
head 12.0672 4.43928 -1.39706
rclavicle -4.13472e-014 3.18055e-014
rhumerus -33.811 37.7497 -98.2667
rradius 65.446
rwrist -10.3825
rhand -48.5922 40.8802
rfingers 7.12502
rthumb -21.2373 12.0237
lclavicle -4.13472e-014 3.18055e-014
lhumerus -3.01558 -35.2419 82.0522
lradius 35.8786
lwrist -12.0451
lhand -25.9761 61.563
lfingers 7.12502
lthumb 0.568792 628.458
rfemur -18.0452 8.53254 12.6389
rtibia 14.1042
rfoot -8.42697 -8.42031
rtoes -24.1886
lfemur -24.7495 -4.87958 -10.9526
ltibia 26.7184
lfoot -16.1923 10.1834
ltoes -29.8769
455
root -9.12256 17.6381 -5.67118 -361.94 80.7252 -375.865
lowerback 12.3783 1.81223 -3.6007
upperback 2.66788 1.93006 -2.69023
thorax -4.15731 1.03263 -1.09153
lowerneck -10.0919 5.39 3.48892
upperneck 30.1427 9.90774 -5.94711
head 12.0451 4.42507 -1.43514
rclavicle -3.45885e-014 2.38542e-014
rhumerus -33.6888 37.6265 -98.4215
rradius 65.7089
rwrist -9.95104
rhand -49.454 41.1479
rfingers 7.12502
rthumb -22.065 12.3867
lclavicle -3.45885e-014 2.38542e-014
lhumerus -3.03439 -35.3476 82.0207
lradius 36.0367
lwrist -11.8968
lhand -25.9104 61.5364
lfingers 7.12502
lthumb 0.632311 628.485
rfemur -17.9447 8.50784 12.6596
rtibia 14.0658
rfoot -8.42225 -8.46873
rtoes -24.0605
lfemur -24.7277 -4.92907 -10.947
ltibia 26.7396
lfoot -16.2017 10.1153
ltoes -29.8128
456
root -9.12035 17.639 -5.66801 -362.035 80.7454 -375.979
lowerback 12.3764 1.84251 -3.58012
upperback 2.67662 1.97327 -2.69397
thorax -4.14668 1.05369 -1.11358
lowerneck -10.1021 5.34824 3.50282
upperneck 30.0992 9.8547 -6.00254
head 12.0306 4.39698 -1.46533
rclavicle 5.1684e-015 3.10104e-014
rhumerus -33.3204 37.3326 -98.4636
rradius 65.4781
rwrist -9.4242
rhand -49.91 40.7672
rfingers 7.12502
rthumb -22.5027 12.0584
lclavicle 5.1684e-015 3.10104e-014
lhumerus -3.01591 -35.6307 81.9636
lradius 36.1956
lwrist -11.74
lhand -25.7889 61.5365
lfingers 7.12502
lthumb 0.749661 628.485
rfemur -17.9356 8.48393 12.6907
rtibia 14.0206
rfoot -8.42209 -8.48273
rtoes -24.1683
lfemur -24.7591 -4.98895 -10.9043
ltibia 26.7712
lfoot -16.2439 10.1082
ltoes -29.6771
457
root -9.11896 17.6392 -5.66635 -362.267 80.6556 -376.255
lowerback 12.3348 1.88288 -3.56263
upperback 2.67776 2.03125 -2.67423
thorax -4.12332 1.08159 -1.11031
lowerneck -10.1289 5.34081 3.50454
upperneck 30.0546 9.84666 -6.04075
head 12.0203 4.38843 -1.48021
rclavicle 2.46493e-014 -5.80451e-014
rhumerus -32.7136 37.1706 -98.4229
rradius 64.6779
rwrist -8.88154
rhand -50.1987 40.0921
rfingers 7.12502
rthumb -22.7798 11.4171
lclavicle 2.46493e-014 -5.80451e-014
lhumerus -2.96857 -35.8041 81.9167
lradius 36.2413
lwrist -11.6258
lhand -25.7866 61.6064
lfingers 7.12502
lthumb 0.751867 628.415
rfemur -17.9849 8.45957 12.7662
rtibia 13.9892
rfoot -8.43472 -8.41085
rtoes -24.4885
lfemur -24.8033 -4.924 -10.8311
ltibia 26.82
lfoot -16.2623 10.1349
ltoes -29.628
458
root -9.11942 17.6384 -5.66428 -362.51 80.472 -376.537
lowerback 12.3071 1.93699 -3.54248
upperback 2.65431 2.10461 -2.6697
thorax -4.13285 1.11713 -1.12806
lowerneck -10.1212 5.33559 3.55261
upperneck 30.0216 9.83565 -6.08187
head 12.0099 4.38433 -1.50553
rclavicle -1.74931e-014 3.10104e-014
rhumerus -31.9422 36.9654 -98.3482
rradius 63.4033
rwrist -8.13906
rhand -50.2144 38.8959
rfingers 7.12502
rthumb -22.7948 10.2228
lclavicle -1.74931e-014 3.10104e-014
lhumerus -3.00695 -35.947 81.8547
lradius 36.3082
lwrist -11.4824
lhand -25.8969 61.7912
lfingers 7.12502
lthumb 0.645315 628.23
rfemur -18.0555 8.49953 12.8586
rtibia 13.9665
rfoot -8.41028 -8.28254
rtoes -24.7363
lfemur -24.8249 -4.75383 -10.7501
ltibia 26.8873
lfoot -16.279 10.1725
ltoes -29.6509
